# File created by Blade
# Date/Time:  Mon Sep 22 16:09:39 2014
# Frame Rate: 120.000 fps
#------------------------------------------------------
:FULLY-SPECIFIED
:DEGREES
1617
root 2.539685 36.996864 2.675880 3.101088 0.726853 1.909098
RightUpLeg 6.034042 -8.491610 -2.473337
RightLeg -5.140134 -0.000000 0.000000
RightFoot -14.128828 -16.826904 16.433549
RightToeBase 14.305499 -0.000000 -0.000000
LeftUpLeg 2.610356 -2.405517 1.767918
LeftLeg -2.043812 -0.000000 0.000000
LeftFoot -9.825406 13.013340 -17.052023
LeftToeBase 9.506802 -0.000000 -0.000000
Spine -4.458424 -4.235261 1.320745
RightShoulder -8.249325 -20.324314 0.860482
RightArm 18.102727 44.771913 95.657811
RightForeArm 90.292024 -0.000000 109.462760
RightHand 18.741729 -0.000000 -33.848634
RightHandThumb1 -24.326973 -0.000000 -32.862282
LeftShoulder -28.012676 39.108781 -4.745786
LeftArm 36.377605 10.864392 -70.834100
LeftForeArm 19.248609 -0.000000 22.860503
LeftHand -14.327119 -0.000000 -9.263378
LeftHandThumb1 -26.253704 0.000000 33.147579
Head 13.501362 3.197349 8.663987
1618
root 2.540675 36.999743 2.666991 3.065884 0.625845 1.902629
RightUpLeg 6.025723 -8.316337 -2.470502
RightLeg -5.117497 -0.000000 0.000000
RightFoot -14.128187 -16.893656 16.451142
RightToeBase 14.321196 -0.000000 -0.000000
LeftUpLeg 2.628686 -2.236271 1.762788
LeftLeg -2.014578 -0.000000 0.000000
LeftFoot -9.808138 12.982920 -17.030383
LeftToeBase 9.517422 -0.000000 -0.000000
Spine -4.335975 -4.156636 1.304331
RightShoulder -8.077654 -20.310847 0.748802
RightArm 18.074716 44.307738 95.462082
RightForeArm 90.444786 -0.000000 109.398594
RightHand 18.597548 -0.000000 -33.736665
RightHandThumb1 -24.326973 -0.000000 -32.862282
LeftShoulder -27.884637 39.082991 -4.703119
LeftArm 36.415025 10.770588 -70.877538
LeftForeArm 18.826523 -0.000000 23.121409
LeftHand -14.428678 -0.000000 -9.251285
LeftHandThumb1 -26.253704 0.000000 33.147579
Head 13.202047 3.167593 8.563602
1619
root 2.540708 37.002458 2.657832 3.009175 0.529584 1.899976
RightUpLeg 6.034866 -8.152148 -2.471351
RightLeg -5.084541 -0.000000 0.000000
RightFoot -14.135309 -16.964661 16.464361
RightToeBase 14.335320 -0.000000 -0.000000
LeftUpLeg 2.667842 -2.077529 1.756440
LeftLeg -1.985208 -0.000000 0.000000
LeftFoot -9.786618 12.935779 -17.029643
LeftToeBase 9.532850 -0.000000 -0.000000
Spine -4.189471 -4.087771 1.276905
RightShoulder -7.848511 -20.233409 0.640331
RightArm 17.878748 43.803820 95.118388
RightForeArm 90.248520 0.000000 109.357866
RightHand 18.490117 -0.000000 -33.485698
RightHandThumb1 -24.326973 -0.000000 -32.862282
LeftShoulder -27.766736 39.052737 -4.659961
LeftArm 36.495043 10.734164 -70.857965
LeftForeArm 18.331220 0.000000 23.376008
LeftHand -14.463470 -0.000000 -8.942310
LeftHandThumb1 -26.253704 0.000000 33.147579
Head 12.932255 3.134130 8.475756
1620
root 2.541351 37.004932 2.646131 2.964184 0.452338 1.896161
RightUpLeg 6.023097 -8.016567 -2.471335
RightLeg -5.036145 -0.000000 0.000000
RightFoot -14.135567 -17.003006 16.476837
RightToeBase 14.294214 -0.000000 -0.000000
LeftUpLeg 2.678314 -1.932754 1.751554
LeftLeg -1.936615 -0.000000 0.000000
LeftFoot -9.779900 12.896602 -17.013382
LeftToeBase 9.494093 -0.000000 -0.000000
Spine -4.050864 -4.050544 1.264981
RightShoulder -7.618340 -20.208600 0.510793
RightArm 17.722114 43.181330 94.787298
RightForeArm 89.864582 0.000000 109.284966
RightHand 18.647423 -0.000000 -33.093121
RightHandThumb1 -24.326973 -0.000000 -32.862282
LeftShoulder -27.701877 39.063011 -4.693903
LeftArm 36.645791 10.736571 -70.764914
LeftForeArm 17.950451 -0.000000 23.675204
LeftHand -14.553962 -0.000000 -8.880239
LeftHandThumb1 -26.253704 0.000000 33.147579
Head 12.652760 3.126684 8.362716
1621
root 2.540429 37.006680 2.634886 2.921391 0.387796 1.889039
RightUpLeg 6.010166 -7.928182 -2.465560
RightLeg -4.982543 -0.000000 0.000000
RightFoot -14.136594 -17.036725 16.439068
RightToeBase 14.320279 -0.000000 -0.000000
LeftUpLeg 2.692105 -1.801848 1.755612
LeftLeg -1.903140 -0.000000 0.000000
LeftFoot -9.759751 12.858509 -16.998506
LeftToeBase 9.515423 -0.000000 -0.000000
Spine -3.911286 -4.044496 1.248997
RightShoulder -7.395933 -20.220812 0.347945
RightArm 17.588330 42.363553 94.460173
RightForeArm 89.393079 -0.000000 109.124563
RightHand 18.606764 -0.000000 -32.360132
RightHandThumb1 -24.326973 -0.000000 -32.862282
LeftShoulder -27.624855 39.024113 -4.687119
LeftArm 36.735413 10.749125 -70.694305
LeftForeArm 17.680739 -0.000000 23.999861
LeftHand -14.616328 -0.000000 -8.887196
LeftHandThumb1 -26.253704 0.000000 33.147579
Head 12.353853 3.158919 8.238541
1622
root 2.541272 37.008388 2.621795 2.854604 0.317044 1.887273
RightUpLeg 6.012165 -7.895787 -2.475421
RightLeg -4.899103 -0.000000 0.000000
RightFoot -14.148788 -16.977155 16.409603
RightToeBase 14.316032 -0.000000 -0.000000
LeftUpLeg 2.731806 -1.699997 1.748008
LeftLeg -1.871670 -0.000000 0.000000
LeftFoot -9.754936 12.846407 -16.986723
LeftToeBase 9.530055 -0.000000 -0.000000
Spine -3.736874 -4.048095 1.224979
RightShoulder -7.156018 -20.270159 0.181669
RightArm 17.406333 41.369445 93.999501
RightForeArm 88.949809 -0.000000 109.022626
RightHand 18.284898 -0.000000 -31.877005
RightHandThumb1 -24.326973 -0.000000 -32.862282
LeftShoulder -27.465852 38.955292 -4.620113
LeftArm 36.742495 10.768411 -70.670123
LeftForeArm 17.575339 -0.000000 24.367986
LeftHand -14.539442 -0.000000 -8.733648
LeftHandThumb1 -26.253704 0.000000 33.147579
Head 12.080209 3.198445 8.149761
1623
root 2.539708 37.010223 2.607517 2.787945 0.257707 1.896503
RightUpLeg 6.024624 -7.814617 -2.488898
RightLeg -4.852766 -0.000000 0.000000
RightFoot -14.140002 -17.001343 16.367429
RightToeBase 14.316707 -0.000000 -0.000000
LeftUpLeg 2.760795 -1.569416 1.738623
LeftLeg -1.830030 -0.000000 0.000000
LeftFoot -9.729674 12.786941 -16.995901
LeftToeBase 9.523557 -0.000000 -0.000000
Spine -3.550790 -4.085770 1.170912
RightShoulder -6.946363 -20.315070 -0.006263
RightArm 17.245414 40.133530 93.527788
RightForeArm 88.724778 -0.000000 108.914290
RightHand 17.562135 0.000000 -31.196332
RightHandThumb1 -24.326973 -0.000000 -32.862282
LeftShoulder -27.339400 38.912355 -4.589616
LeftArm 36.768578 10.767197 -70.612503
LeftForeArm 17.493511 -0.000000 24.818148
LeftHand -14.632930 -0.000000 -8.753571
LeftHandThumb1 -26.253704 0.000000 33.147579
Head 11.821154 3.253984 8.106454
1624
root 2.537922 37.011356 2.593927 2.717919 0.208076 1.894220
RightUpLeg 6.052485 -7.680604 -2.484899
RightLeg -4.850861 -0.000000 0.000000
RightFoot -14.107872 -17.098557 16.379711
RightToeBase 14.227876 -0.000000 -0.000000
LeftUpLeg 2.803280 -1.481027 1.738909
LeftLeg -1.805209 -0.000000 0.000000
LeftFoot -9.716351 12.767742 -16.982110
LeftToeBase 9.508468 -0.000000 -0.000000
Spine -3.357516 -4.120167 1.135810
RightShoulder -6.786219 -20.409267 -0.152282
RightArm 16.979578 38.662646 92.850051
RightForeArm 88.867211 -0.000000 108.881063
RightHand 18.004210 -0.000000 -31.105512
RightHandThumb1 -24.326973 -0.000000 -32.862282
LeftShoulder -27.205027 38.828585 -4.543186
LeftArm 36.804249 10.812884 -70.536999
LeftForeArm 17.461490 -0.000000 25.224329
LeftHand -14.585639 -0.000000 -8.838149
LeftHandThumb1 -26.253704 0.000000 33.147579
Head 11.530840 3.314948 8.020445
1625
root 2.534760 37.012785 2.581890 2.636718 0.154464 1.876292
RightUpLeg 6.091713 -7.608083 -2.472816
RightLeg -4.826620 -0.000000 0.000000
RightFoot -14.105206 -17.121393 16.336457
RightToeBase 14.325485 -0.000000 -0.000000
LeftUpLeg 2.864858 -1.388027 1.757919
LeftLeg -1.791973 -0.000000 0.000000
LeftFoot -9.704388 12.740529 -16.986500
LeftToeBase 9.515396 -0.000000 -0.000000
Spine -3.154421 -4.160761 1.115245
RightShoulder -6.639970 -20.586154 -0.269472
RightArm 16.997418 37.034507 92.314827
RightForeArm 88.855426 0.000000 108.830300
RightHand 18.320693 -0.000000 -31.508791
RightHandThumb1 -24.326973 -0.000000 -32.862282
LeftShoulder -27.103554 38.815354 -4.533286
LeftArm 36.964812 10.804823 -70.502462
LeftForeArm 17.502795 -0.000000 25.508947
LeftHand -14.506722 0.000000 -8.869251
LeftHandThumb1 -26.253704 0.000000 33.147579
Head 11.255815 3.415008 7.939663
1626
root 2.530380 37.013985 2.568185 2.545672 0.056849 1.876633
RightUpLeg 6.128257 -7.518789 -2.476516
RightLeg -4.789803 -0.000000 0.000000
RightFoot -14.090747 -17.116568 16.318057
RightToeBase 14.292836 -0.000000 -0.000000
LeftUpLeg 2.942739 -1.247718 1.760006
LeftLeg -1.783223 -0.000000 0.000000
LeftFoot -9.679522 12.698223 -16.996994
LeftToeBase 9.500927 -0.000000 -0.000000
Spine -2.936477 -4.165521 1.054319
RightShoulder -6.506235 -20.801650 -0.374132
RightArm 17.077704 35.347135 91.772139
RightForeArm 89.083699 -0.000000 108.759501
RightHand 17.693637 -0.000000 -31.395367
RightHandThumb1 -24.326973 -0.000000 -32.862282
LeftShoulder -27.041235 38.838753 -4.583560
LeftArm 37.165745 10.840251 -70.349691
LeftForeArm 17.537118 -0.000000 25.880740
LeftHand -14.430904 -0.000000 -8.830981
LeftHandThumb1 -26.253704 0.000000 33.147579
Head 11.002328 3.505813 7.877285
1627
root 2.525899 37.014553 2.555903 2.446746 -0.037046 1.855653
RightUpLeg 6.172842 -7.531584 -2.466615
RightLeg -4.730791 -0.000000 0.000000
RightFoot -14.083721 -17.006117 16.278749
RightToeBase 14.290503 -0.000000 -0.000000
LeftUpLeg 3.033641 -1.132142 1.782599
LeftLeg -1.781301 -0.000000 0.000000
LeftFoot -9.675314 12.679201 -17.026599
LeftToeBase 9.498886 -0.000000 -0.000000
Spine -2.712251 -4.153682 1.025997
RightShoulder -6.361630 -20.894318 -0.447035
RightArm 17.241024 33.740428 91.351161
RightForeArm 88.660565 0.000000 108.651282
RightHand 17.143934 -0.000000 -31.255562
RightHandThumb1 -24.326973 -0.000000 -32.862282
LeftShoulder -26.880377 38.767389 -4.537013
LeftArm 37.250091 10.906023 -70.236725
LeftForeArm 17.541696 -0.000000 26.267348
LeftHand -14.451407 0.000000 -9.094975
LeftHandThumb1 -26.253704 0.000000 33.147579
Head 10.758654 3.611535 7.815475
1628
root 2.521497 37.014297 2.542877 2.345364 -0.142738 1.857940
RightUpLeg 6.237967 -7.412315 -2.475381
RightLeg -4.747496 -0.000000 0.000000
RightFoot -14.047276 -17.045116 16.228838
RightToeBase 14.314839 -0.000000 -0.000000
LeftUpLeg 3.127697 -1.031631 1.780519
LeftLeg -1.779632 -0.000000 0.000000
LeftFoot -9.664506 12.694080 -17.007018
LeftToeBase 9.478930 -0.000000 -0.000000
Spine -2.484088 -4.127309 0.966451
RightShoulder -6.203295 -20.928370 -0.578315
RightArm 17.182598 32.010581 90.780978
RightForeArm 88.698410 -0.000000 108.489076
RightHand 16.536363 -0.000000 -30.735223
RightHandThumb1 -24.326973 -0.000000 -32.862282
LeftShoulder -26.760561 38.665870 -4.507655
LeftArm 37.386472 11.073793 -70.020571
LeftForeArm 17.493543 -0.000000 26.584436
LeftHand -14.447233 -0.000000 -8.911091
LeftHandThumb1 -26.253704 0.000000 33.147579
Head 10.523239 3.668046 7.731769
